<?xml version="1.0" encoding="utf-8"?>
<?xml-stylesheet type="text/xsl" href="rss1.xsl"?>
<rss version="2.0" xmlns:atom="http://www.w3.org/2005/Atom" xmlns:content="http://purl.org/rss/1.0/modules/content/" xmlns:dc="http://purl.org/dc/elements/1.1/" xmlns:media="http://search.yahoo.com/mrss/">
<channel>
 <title>Getty</title>
 <link>http://www.gettyimg.com/</link>
 <atom:link href="http://www.gettyimg.com/" rel="self" type="application/rss+xml" />

 
                <item>
                <title><![CDATA[【Interviews / TV shows / Others】WEB-DL - Top Guns: Inside the RAF – Series 1 (1080p) (All4) (WEB-DL) [MAVERICK]]]></title>
                <link><![CDATA[https://sharemania.us/threads/top-guns-inside-the-raf-%E2%80%93-series-1-1080p-all4-web-dl-maverick.226757/]]></link>
                <description><![CDATA[<article>
<blockquote class="messageText SelectQuoteContainer ugc baseHtml">
<div style="text-align: center"><b>Top Guns: Inside the RAF – Series 1 (1080p) (All4) (WEB-DL) [MAVERICK]<br>
<span style="color: #ff0000">NEW EPISODES ADDED WEEKLY</span></b>​</div><img src="https://i.postimg.cc/kGcdH4nH/Top-Guns-Inside-the-RAF-Series-1-Episode-1-1080p-All4-WEB-DL-MAVERICK.jpg" class="bbCodeImage LbImage" alt="[​IMG]" data-url="https://i.postimg.cc/kGcdH4nH/Top-Guns-Inside-the-RAF-Series-1-Episode-1-1080p-All4-WEB-DL-MAVERICK.jpg" style=""><b><span style="color: #ff0000">Episode 1:<br>
Airdate: 21/8/23 9pm Channel 4</span></b><br>
<span style="color: #404040">
<div class="ToggleTriggerAnchor bbCodeSpoilerContainer">
<button type="button" class="button bbCodeSpoilerButton ToggleTrigger Tooltip JsOnly" data-target="> .SpoilerTarget"><span>Spoiler: <span class="SpoilerTitle">Media Info:</span></span></button>
<div class="SpoilerTarget bbCodeSpoilerText">General<br>
Complete name : C:\Users\Maverick\Desktop\Top Guns: Inside the RAF – Series 1 Episode 1 (1080p) (All4) (WEB-DL) [MAVERICK].mkv<br>
Format : Matroska<br>
Format version : Version 4<br>
File size : 1.66 GiB<br>
Duration : 46 min 27 s<br>
Overall bit rate mode : Variable<br>
Overall bit rate : 5102 kb/s<br>
Movie name : Top Guns: Inside the RAF – Series 1 Episode 1 (1080p) (All4) (WEB-DL) [MAVERICK]<br>
Encoded date : UTC 2023-08-21 21:36:26<br>
Writing application : mkvmerge v78.0 ('Running') 64-bit<br>
Writing library : libebml v1.4.4 + libmatroska v1.7.1<br>
<br>
Video<br>
ID : 1<br>
Format : AVC<br>
Format/Info : Advanced Video Codec<br>
Format profile : High@L4.1<br>
Format settings : CABAC / 4 Ref Frames<br>
Format settings, CABAC : Yes<br>
Format settings, Reference fra : 4 frames<br>
Codec ID : V_MPEG4/ISO/AVC<br>
Duration : 46 min 27 s<br>
Bit rate mode : Variable<br>
Bit rate : 5 000 kb/s<br>
Maximum bit rate : 6250 kb/s<br>
Width : 1 920 pixels<br>
Height : 1 080 pixels<br>
Display aspect ratio : 16:9<br>
Frame rate mode : Constant<br>
Frame rate : 25.000 FPS<br>
Color space : YUV<br>
Chroma subsampling : 4:2:0<br>
Bit depth : 8 bits<br>
Scan type : Progressive<br>
Bits/(Pixel*Frame) : 0.096<br>
Stream size : 1.61 GiB (97%)<br>
Title : Top Guns: Inside the RAF – Series 1 Episode 1 (1080p) (All4) (WEB-DL) [MAVERICK]<br>
Writing library : x264 core 159<br>
Encoding settings : cabac=1 / ref=3 / deblock=1:0:0 / analyse=0x3:0x113 / me=hex / subme=7 / psy=0 / mixed_ref=1 / me_range=16 / chroma_me=1 / trellis=1 / 8x8dct=1 / cqm=0 / deadzone=21,11 / fast_pskip=1 / chroma_qp_offset=0 / threads=32 / lookahead_threads=5 / sliced_threads=0 / nr=0 / decimate=1 / interlaced=tff / bluray_compat=0 / constrained_intra=0 / bframes=3 / b_pyramid=2 / b_adapt=1 / b_bias=0 / direct=1 / weightb=1 / open_gop=0 / weightp=0 / keyint=250 / keyint_min=25 / scenecut=40 / intra_refresh=0 / rc_lookahead=40 / rc=cbr / mbtree=1 / bitrate=5000 / ratetol=1.0 / qcomp=0.60 / qpmin=0 / qpmax=51 / qpstep=4 / vbv_maxrate=5000 / vbv_bufsize=4000 / nal_hrd=none / filler=0 / ip_ratio=1.40 / aq=1:0.00<br>
Language : English<br>
Default : Yes<br>
Forced : No<br>
Color range : Limited<br>
Color primaries : BT.709<br>
Transfer characteristics : BT.709<br>
Matrix coefficients : BT.709<br>
<br>
Audio<br>
ID : 2<br>
Format : AAC LC<br>
Format/Info : Advanced Audio Codec Low Complexity<br>
Codec ID : A_AAC-2<br>
Duration : 46 min 27 s<br>
Bit rate : 128 kb/s<br>
Channel(s) : 2 channels<br>
Channel layout : L R<br>
Sampling rate : 48.0 kHz<br>
Frame rate : 46.875 FPS (1024 SPF)<br>
Compression mode : Lossy<br>
Stream size : 42.5 MiB (3%)<br>
Title : Stereo<br>
Language : English<br>
Default : Yes<br>
Forced : No<br>
<br>
Menu<br>
00:00:00.000 : en:Chapter 01<br>
00:11:59.920 : en:Chapter 02<br>
00:22:57.640 : en:Chapter 03<br>
00:38:55.560 : en:Chapter 04<br>
00:46:01.800 : en:Credits</div>
</div>
<div class="ToggleTriggerAnchor bbCodeSpoilerContainer">
<button type="button" class="button bbCodeSpoilerButton ToggleTrigger Tooltip JsOnly" data-target="> .SpoilerTarget"><span>Spoiler: <span class="SpoilerTitle">Download:</span></span></button>
<div class="SpoilerTarget bbCodeSpoilerText">
<div class="bbCodeBlock bbCodeVfcHH HiddenContent">
<div class="attribution type">Hidden Content:</div>
<blockquote>You must either reply or click 'Like' to see the hidden information contained here.</blockquote>
</div></div>
</div></span><br>
<br>
<b><span style="color: #ff0000">Episode 2:<br>
Airdate: 28/8/23 9pm Channel 4</span></b><br>
<span style="color: #404040"><br>
</span>
<div class="messageTextEndMarker">&nbsp;</div>
</blockquote>
</article>]]></description>
                <author><![CDATA[Maverick]]></author>
                </item>

                </channel></rss>